<svg width="1000" height="267" viewBox="0 0 1000 267" fill="none" xmlns="http://www.w3.org/2000/svg">
<path d="M0 262.373V7.28814H93.6527C114.06 7.28814 130.822 10.8108 143.941 17.856C157.303 24.6582 167.263 34.0114 173.822 45.9153C180.382 57.5764 183.661 70.5736 183.661 84.9069C183.661 100.455 179.531 114.667 171.272 127.543C163.255 140.418 150.622 149.771 133.373 155.602L186.212 262.373H132.644L85.2713 161.797H46.6442V262.373H0ZM46.6442 127.543H90.7374C106.285 127.543 117.704 123.777 124.992 116.246C132.28 108.715 135.924 98.7544 135.924 86.3646C135.924 74.2176 132.28 64.5001 124.992 57.212C117.947 49.9238 106.407 46.2797 90.373 46.2797H46.6442V127.543Z" fill="white"/>
<path d="M284.52 266.746C266.299 266.746 250.144 262.859 236.053 255.085C221.963 247.311 210.909 236.379 202.892 222.289C194.875 208.198 190.867 191.921 190.867 173.458C190.867 154.752 194.754 138.11 202.528 123.534C210.545 108.958 221.477 97.6612 235.325 89.6442C249.415 81.3843 265.935 77.2544 284.884 77.2544C302.619 77.2544 318.288 81.1414 331.893 88.9154C345.497 96.6894 356.065 107.379 363.596 120.983C371.37 134.345 375.257 149.286 375.257 165.805C375.257 168.478 375.136 171.271 374.893 174.187C374.893 177.102 374.771 180.139 374.528 183.297H237.147C238.118 197.387 242.977 208.441 251.723 216.458C260.712 224.475 271.522 228.483 284.155 228.483C293.63 228.483 301.525 226.418 307.842 222.289C314.401 217.916 319.26 212.328 322.418 205.526H369.791C366.39 216.944 360.681 227.39 352.664 236.865C344.89 246.096 335.172 253.385 323.511 258.729C312.093 264.074 299.096 266.746 284.52 266.746ZM284.884 115.153C273.466 115.153 263.384 118.432 254.638 124.992C245.892 131.308 240.305 141.026 237.875 154.144H327.884C327.155 142.24 322.782 132.766 314.765 125.721C306.749 118.675 296.788 115.153 284.884 115.153Z" fill="white"/>
<path d="M396.267 262.373V81.6273H437.445L441.09 112.237C446.677 101.548 454.694 93.0454 465.14 86.729C475.83 80.4126 488.341 77.2544 502.674 77.2544C525.025 77.2544 542.395 84.2996 554.785 98.39C567.175 112.48 573.369 133.13 573.369 160.339V262.373H526.725V164.712C526.725 149.164 523.567 137.26 517.251 129C510.934 120.74 501.095 116.61 487.734 116.61C474.615 116.61 463.804 121.226 455.301 130.458C447.042 139.69 442.912 152.565 442.912 169.085V262.373H396.267Z" fill="white"/>
<path d="M682.837 266.746C665.831 266.746 650.648 262.616 637.286 254.356C623.924 246.096 613.357 234.8 605.583 220.467C597.808 206.133 593.921 189.856 593.921 171.636C593.921 153.416 597.808 137.26 605.583 123.17C613.357 108.836 623.924 97.6612 637.286 89.6442C650.648 81.3843 665.831 77.2544 682.837 77.2544C696.441 77.2544 708.345 79.8052 718.549 84.9069C728.752 90.0086 737.012 97.1753 743.329 106.407V0H789.973V262.373H748.43L743.329 236.5C737.498 244.517 729.724 251.563 720.006 257.636C710.532 263.71 698.142 266.746 682.837 266.746ZM692.676 225.933C707.738 225.933 720.006 220.952 729.481 210.992C739.199 200.788 744.057 187.791 744.057 172C744.057 156.209 739.199 143.334 729.481 133.373C720.006 123.17 707.738 118.068 692.676 118.068C677.857 118.068 665.588 123.048 655.871 133.009C646.153 142.969 641.294 155.845 641.294 171.636C641.294 187.427 646.153 200.424 655.871 210.627C665.588 220.831 677.857 225.933 692.676 225.933Z" fill="white"/>
<path d="M935.063 258.291C917.558 263.346 900.958 264.094 885.264 260.535C869.57 256.976 855.917 249.54 844.305 238.227C832.694 226.914 824.326 212.388 819.203 194.65C814.013 176.678 813.13 159.612 816.555 143.451C820.213 127.223 827.581 113.336 838.661 101.792C849.906 89.9468 864.631 81.3953 882.836 76.1377C899.875 71.217 916.007 70.6037 931.235 74.2978C946.462 77.9918 959.581 85.3293 970.591 96.3101C981.767 106.99 989.647 120.266 994.231 136.137C994.972 138.704 995.631 141.422 996.206 144.29C997.015 147.091 997.741 150.042 998.384 153.144L866.396 191.262C871.239 204.53 878.974 213.801 889.601 219.077C900.461 224.285 911.96 225.136 924.096 221.631C933.199 219.002 940.212 214.828 945.134 209.107C950.223 203.086 953.34 196.37 954.487 188.959L1000 175.814C999.9 187.728 997.314 199.348 992.241 210.675C987.333 221.701 980.02 231.399 970.299 239.77C960.812 248.073 949.067 254.246 935.063 258.291ZM893.352 112.548C882.382 115.716 873.606 121.664 867.023 130.393C860.374 138.888 857.702 149.774 859.008 163.052L945.482 138.078C941.479 126.843 934.649 118.954 924.992 114.41C915.335 109.866 904.788 109.245 893.352 112.548Z" fill="white"/>
</svg>
